<svg width="42" height="42" viewBox="0 0 42 42" fill="none" xmlns="http://www.w3.org/2000/svg">
<path d="M38.0625 6.5625H3.9375C3.21152 6.5625 2.625 7.14902 2.625 7.875V34.125C2.625 34.851 3.21152 35.4375 3.9375 35.4375H38.0625C38.7885 35.4375 39.375 34.851 39.375 34.125V7.875C39.375 7.14902 38.7885 6.5625 38.0625 6.5625ZM36.4219 32.4844H5.57812V30.8479L11.2588 24.109L17.4152 31.4098L26.9924 20.0566L36.4219 31.2375V32.4844ZM36.4219 27.1605L27.2426 16.275C27.1113 16.1191 26.8734 16.1191 26.7422 16.275L17.4152 27.3328L11.509 20.3314C11.3777 20.1756 11.1398 20.1756 11.0086 20.3314L5.57812 26.7709V9.51562H36.4219V27.1605Z" fill="black"/>
<path d="M17.4152 31.4098L11.2588 24.109L5.57812 30.8479V32.4844H36.4219V31.2375L26.9924 20.0566L17.4152 31.4098Z" fill="black" fill-opacity="0.15"/>
<path d="M5.57812 26.7709L11.0086 20.3314C11.1398 20.1756 11.3777 20.1756 11.509 20.3314L17.4152 27.3328L26.7422 16.275C26.8734 16.1191 27.1113 16.1191 27.2426 16.275L36.4219 27.1605V9.51562H5.57812V26.7709ZM12.4688 11.4844C12.9427 11.4844 13.4121 11.5777 13.85 11.7591C14.2879 11.9405 14.6858 12.2064 15.021 12.5415C15.3561 12.8767 15.622 13.2746 15.8034 13.7125C15.9848 14.1504 16.0781 14.6198 16.0781 15.0938C16.0781 15.5677 15.9848 16.0371 15.8034 16.475C15.622 16.9129 15.3561 17.3108 15.021 17.646C14.6858 17.9811 14.2879 18.247 13.85 18.4284C13.4121 18.6098 12.9427 18.7031 12.4688 18.7031C11.5115 18.7031 10.5934 18.3229 9.91654 17.646C9.23965 16.9691 8.85938 16.051 8.85938 15.0938C8.85938 14.1365 9.23965 13.2184 9.91654 12.5415C10.5934 11.8646 11.5115 11.4844 12.4688 11.4844Z" fill="black" fill-opacity="0.15"/>
<path d="M11.3203 15.0938C11.3203 15.3983 11.4413 15.6904 11.6567 15.9058C11.8721 16.1212 12.1642 16.2422 12.4688 16.2422C12.7733 16.2422 13.0654 16.1212 13.2808 15.9058C13.4962 15.6904 13.6172 15.3983 13.6172 15.0938C13.6172 14.7892 13.4962 14.4971 13.2808 14.2817C13.0654 14.0663 12.7733 13.9453 12.4688 13.9453C12.1642 13.9453 11.8721 14.0663 11.6567 14.2817C11.4413 14.4971 11.3203 14.7892 11.3203 15.0938Z" fill="black" fill-opacity="0.15"/>
<path d="M12.4688 18.7031C12.9427 18.7031 13.4121 18.6098 13.85 18.4284C14.2879 18.247 14.6858 17.9811 15.021 17.646C15.3561 17.3108 15.622 16.9129 15.8034 16.475C15.9848 16.0371 16.0781 15.5677 16.0781 15.0938C16.0781 14.6198 15.9848 14.1504 15.8034 13.7125C15.622 13.2746 15.3561 12.8767 15.021 12.5415C14.6858 12.2064 14.2879 11.9405 13.85 11.7591C13.4121 11.5777 12.9427 11.4844 12.4688 11.4844C11.5115 11.4844 10.5934 11.8646 9.91654 12.5415C9.23965 13.2184 8.85938 14.1365 8.85938 15.0938C8.85938 16.051 9.23965 16.9691 9.91654 17.646C10.5934 18.3229 11.5115 18.7031 12.4688 18.7031ZM12.4688 13.9453C13.1045 13.9453 13.6172 14.458 13.6172 15.0938C13.6172 15.7295 13.1045 16.2422 12.4688 16.2422C11.833 16.2422 11.3203 15.7295 11.3203 15.0938C11.3203 14.458 11.833 13.9453 12.4688 13.9453Z" fill="black"/>
</svg>
