<svg width="31" height="31" viewBox="0 0 31 31" fill="none" xmlns="http://www.w3.org/2000/svg">
<path d="M28.0938 4.84375H2.90625C2.37041 4.84375 1.9375 5.27666 1.9375 5.8125V25.1875C1.9375 25.7233 2.37041 26.1562 2.90625 26.1562H28.0938C28.6296 26.1562 29.0625 25.7233 29.0625 25.1875V5.8125C29.0625 5.27666 28.6296 4.84375 28.0938 4.84375ZM26.8828 23.9766H4.11719V22.7687L8.31006 17.7947L12.8541 23.1834L19.9229 14.8037L26.8828 23.0562V23.9766ZM26.8828 20.0471L20.1076 12.0125C20.0107 11.8975 19.8352 11.8975 19.7383 12.0125L12.8541 20.1742L8.49473 15.0065C8.39785 14.8915 8.22227 14.8915 8.12539 15.0065L4.11719 19.7595V7.02344H26.8828V20.0471ZM9.20312 13.8047C9.55297 13.8047 9.8994 13.7358 10.2226 13.6019C10.5458 13.468 10.8395 13.2718 11.0869 13.0244C11.3343 12.777 11.5305 12.4833 11.6644 12.1601C11.7983 11.8369 11.8672 11.4905 11.8672 11.1406C11.8672 10.7908 11.7983 10.4444 11.6644 10.1211C11.5305 9.79791 11.3343 9.50423 11.0869 9.25685C10.8395 9.00947 10.5458 8.81323 10.2226 8.67935C9.8994 8.54547 9.55297 8.47656 9.20312 8.47656C8.49657 8.47656 7.81896 8.75724 7.31935 9.25685C6.81974 9.75646 6.53906 10.4341 6.53906 11.1406C6.53906 11.8472 6.81974 12.5248 7.31935 13.0244C7.81896 13.524 8.49657 13.8047 9.20312 13.8047ZM9.20312 10.293C9.67236 10.293 10.0508 10.6714 10.0508 11.1406C10.0508 11.6099 9.67236 11.9883 9.20312 11.9883C8.73389 11.9883 8.35547 11.6099 8.35547 11.1406C8.35547 10.6714 8.73389 10.293 9.20312 10.293Z" fill="black"/>
</svg>
