<svg width="43" height="43" viewBox="0 0 43 43" fill="none" xmlns="http://www.w3.org/2000/svg">
<path d="M38.2222 4.77777H4.77777C4.1442 4.77777 3.53658 5.02946 3.08857 5.47746C2.64057 5.92546 2.38889 6.53309 2.38889 7.16666V35.8333C2.38889 36.4669 2.64057 37.0745 3.08857 37.5225C3.53658 37.9705 4.1442 38.2222 4.77777 38.2222H38.2222C38.8558 38.2222 39.4634 37.9705 39.9114 37.5225C40.3594 37.0745 40.6111 36.4669 40.6111 35.8333V7.16666C40.6111 6.53309 40.3594 5.92546 39.9114 5.47746C39.4634 5.02946 38.8558 4.77777 38.2222 4.77777ZM10.6544 9.55555C11.3632 9.55555 12.056 9.76571 12.6452 10.1594C13.2345 10.5532 13.6938 11.1128 13.965 11.7676C14.2362 12.4224 14.3072 13.1429 14.1689 13.838C14.0307 14.5331 13.6894 15.1715 13.1882 15.6727C12.6871 16.1738 12.0486 16.5151 11.3535 16.6534C10.6584 16.7916 9.93793 16.7207 9.28316 16.4495C8.62839 16.1782 8.06875 15.719 7.67501 15.1297C7.28127 14.5404 7.07111 13.8476 7.07111 13.1389C7.07111 12.1885 7.44864 11.2771 8.12064 10.6051C8.79265 9.93308 9.70408 9.55555 10.6544 9.55555ZM7.16666 32.25V27.3528L14.3333 20.0905C14.5571 19.8681 14.8599 19.7432 15.1754 19.7432C15.491 19.7432 15.7937 19.8681 16.0175 20.0905L19.1111 23.1125L9.93777 32.25H7.16666ZM35.8333 32.25H13.3181L20.7594 24.8086L27.2094 18.3586C27.4332 18.1361 27.736 18.0113 28.0515 18.0113C28.3671 18.0113 28.6698 18.1361 28.8936 18.3586L35.8333 25.2983V32.25Z" fill="black"/>
</svg>
