<svg width="53" height="54" viewBox="0 0 53 54" fill="none" xmlns="http://www.w3.org/2000/svg">
<path fill-rule="evenodd" clip-rule="evenodd" d="M38.6459 29.25C44.1342 29.25 48.5834 33.7831 48.5834 39.375C48.5834 44.9669 44.1342 49.5 38.6459 49.5C33.1575 49.5 28.7084 44.9669 28.7084 39.375C28.7084 33.7831 33.1575 29.25 38.6459 29.25ZM35.3334 33.75V45L45.2709 39.375L35.3334 33.75ZM26.9572 36C26.6529 37.0981 26.499 38.2339 26.5 39.375C26.5 39.7542 26.5168 40.1296 26.5496 40.5002L4.41669 40.5V36H26.9572ZM13.25 18V33.75H6.62499V18H13.25ZM24.2917 24.75V33.75H17.6667V24.75H24.2917ZM35.3334 22.5L35.3333 27.4659C32.6194 28.2479 30.2917 29.967 28.7081 32.2584L28.7084 22.5H35.3334ZM46.375 24.75L46.3752 29.8288C44.5414 28.2858 42.2555 27.2805 39.7502 27.0504L39.75 24.75H46.375ZM32.0209 6.75C33.8503 6.75 35.3334 8.26105 35.3334 10.125C35.3334 10.171 35.3325 10.2167 35.3307 10.2621L40.5729 12.3986C41.1801 11.6945 42.0703 11.25 43.0625 11.25C44.8919 11.25 46.375 12.7611 46.375 14.625C46.375 16.489 44.8919 18 43.0625 18C41.2331 18 39.75 16.489 39.75 14.625C39.7501 14.5791 39.751 14.5333 39.7527 14.4877L34.5106 12.3512C33.9034 13.0554 33.013 13.5 32.0208 13.5C31.25 13.5012 30.5032 13.2274 29.9099 12.7261L24.2256 16.2018C24.2689 16.4194 24.2916 16.6444 24.2916 16.875C24.2916 18.7389 22.8085 20.25 20.9791 20.25C19.1497 20.25 17.6666 18.7389 17.6666 16.875C17.6666 16.6447 17.6893 16.4196 17.7324 16.2021L12.0473 12.7269C11.4542 13.2277 10.7078 13.5012 9.93749 13.5C8.10805 13.5 6.62499 11.9889 6.62499 10.125C6.62499 8.26105 8.10805 6.75 9.93749 6.75C11.7669 6.75 13.25 8.26105 13.25 10.125C13.25 10.3554 13.2273 10.5804 13.1841 10.7979L18.869 14.2733C19.4622 13.7724 20.2088 13.4988 20.9792 13.5C21.7496 13.4988 22.4961 13.7723 23.0893 14.2732L28.7742 10.798C28.7302 10.5765 28.7082 10.351 28.7084 10.125C28.7084 8.26105 30.1915 6.75 32.0209 6.75Z" fill="black"/>
</svg>
