<svg width="38" height="38" viewBox="0 0 38 38" fill="none" xmlns="http://www.w3.org/2000/svg">
<path d="M26.2944 4.75791C26.6723 4.37864 27.1214 4.07769 27.6158 3.87229C28.1102 3.6669 28.6404 3.56109 29.1758 3.56094C29.7112 3.5608 30.2413 3.66631 30.7359 3.87144C31.2304 4.07656 31.6796 4.37727 32.0578 4.75632L33.2453 5.94541C33.6237 6.32333 33.9239 6.77216 34.1288 7.26622C34.3336 7.76027 34.439 8.28986 34.439 8.8247C34.439 9.35953 34.3336 9.88912 34.1288 10.3832C33.9239 10.8772 33.6237 11.3261 33.2453 11.704L21.2119 23.7437C20.8339 24.1222 20.3849 24.4225 19.8907 24.6273C19.3965 24.8322 18.8668 24.9376 18.3318 24.9375H14.25C13.9351 24.9375 13.633 24.8124 13.4103 24.5897C13.1876 24.367 13.0625 24.0649 13.0625 23.75V19.6935C13.0625 18.6137 13.49 17.5782 14.2532 16.815L26.2944 4.75791Z" fill="black"/>
<path d="M18.9097 3.56244H19C19.3149 3.56244 19.617 3.68755 19.8397 3.91025C20.0624 4.13295 20.1875 4.43499 20.1875 4.74994C20.1875 5.06488 20.0624 5.36693 19.8397 5.58963C19.617 5.81233 19.3149 5.93744 19 5.93744C15.6069 5.93744 13.1828 5.94061 11.3398 6.18761C9.53167 6.43144 8.46292 6.89061 7.676 7.67594C6.89067 8.46286 6.4315 9.53161 6.18767 11.3398C5.94067 13.1828 5.9375 15.6069 5.9375 18.9999C5.9375 22.393 5.94067 24.8171 6.18767 26.6601C6.4315 28.4683 6.89067 29.537 7.676 30.3239C8.46292 31.1093 9.53167 31.5684 11.3398 31.8123C13.1828 32.0593 15.6069 32.0624 19 32.0624C22.3931 32.0624 24.8172 32.0593 26.6602 31.8123C28.4683 31.5684 29.5371 31.1093 30.324 30.3239C31.1093 29.537 31.5685 28.4683 31.8123 26.6601C32.0593 24.8171 32.0625 22.3914 32.0625 18.9999C32.0625 18.685 32.1876 18.3829 32.4103 18.1603C32.633 17.9376 32.9351 17.8124 33.25 17.8124C33.5649 17.8124 33.867 17.9376 34.0897 18.1603C34.3124 18.3829 34.4375 18.685 34.4375 18.9999V19.0902C34.4375 22.3724 34.4375 24.9564 34.1668 26.9752C33.8881 29.0494 33.3038 30.7024 32.0023 32.0023C30.7024 33.3038 29.0478 33.8864 26.9768 34.1667C24.9565 34.4374 22.3725 34.4374 19.0903 34.4374H18.9097C15.6275 34.4374 13.0435 34.4374 11.0247 34.1667C8.95058 33.888 7.29758 33.3038 5.99767 32.0023C4.69617 30.7024 4.1135 29.0478 3.83325 26.9768C3.5625 24.9564 3.5625 22.3724 3.5625 19.0902V18.9097C3.5625 15.6274 3.5625 13.0434 3.83325 11.0247C4.11192 8.95052 4.69617 7.29752 5.99767 5.99761C7.29758 4.69611 8.95217 4.11344 11.0232 3.83319C13.0435 3.56244 15.6275 3.56244 18.9097 3.56244Z" fill="black"/>
</svg>
