<svg width="38" height="38" viewBox="0 0 38 38" fill="none" xmlns="http://www.w3.org/2000/svg">
<path fill-rule="evenodd" clip-rule="evenodd" d="M1.97917 0H0V38H15.8333V34.0417H3.95833V3.95833H20.9522L27.7099 10.716V17.0335L27.8461 16.8973L31.6667 13.0736V9.07567L31.0872 8.49617L23.1705 0.5795L22.591 0H1.97917ZM8.3125 21.7708H6.33333V17.8125H14.25V21.7708H12.2708V27.3125H14.25V31.2708H6.33333V27.3125H8.3125V21.7708ZM30.0833 19.1362L31.2043 20.2556L36.746 25.7972L37.8654 26.9167L36.746 28.0361L27.246 37.5361L26.7821 38H19V30.2195L19.4639 29.7556L28.9639 20.2556L30.0833 19.1362Z" fill="black"/>
</svg>
